<svg xmlns="http://www.w3.org/2000/svg" xmlns:xlink="http://www.w3.org/1999/xlink" width="500" zoomAndPan="magnify" viewBox="0 0 375 154.499995" height="206" preserveAspectRatio="xMidYMid meet" version="1.0"><defs><g/><clipPath id="72e3d33e76"><path d="M 26.300781 34.324219 L 111.65625 34.324219 L 111.65625 119.679688 L 26.300781 119.679688 Z M 26.300781 34.324219 " clip-rule="nonzero"/></clipPath><clipPath id="2dc97e9727"><path d="M 34.375 34.324219 L 103.582031 34.324219 C 108.039062 34.324219 111.65625 37.9375 111.65625 42.398438 L 111.65625 111.605469 C 111.65625 116.0625 108.039062 119.679688 103.582031 119.679688 L 34.375 119.679688 C 29.914062 119.679688 26.300781 116.0625 26.300781 111.605469 L 26.300781 42.398438 C 26.300781 37.9375 29.914062 34.324219 34.375 34.324219 Z M 34.375 34.324219 " clip-rule="nonzero"/></clipPath><clipPath id="ba6992b30b"><path d="M 80 42.359375 L 103.859375 42.359375 L 103.859375 111.882812 L 80 111.882812 Z M 80 42.359375 " clip-rule="nonzero"/></clipPath><clipPath id="97dae81f91"><path d="M 34.335938 42.359375 L 58 42.359375 L 58 111.882812 L 34.335938 111.882812 Z M 34.335938 42.359375 " clip-rule="nonzero"/></clipPath></defs><g clip-path="url(#72e3d33e76)"><g clip-path="url(#2dc97e9727)"><path fill="#f5fff9" d="M 26.300781 34.324219 L 111.65625 34.324219 L 111.65625 119.679688 L 26.300781 119.679688 Z M 26.300781 34.324219 " fill-opacity="1" fill-rule="nonzero"/></g></g><g fill="#ffffff" fill-opacity="1"><g transform="translate(122.746605, 87.89946)"><g><path d="M 16.84375 -28.8125 C 19.0625 -28.8125 21.28125 -28.394531 23.5 -27.5625 C 23.863281 -27.4375 24.132812 -27.253906 24.3125 -27.015625 C 24.5 -26.773438 24.59375 -26.445312 24.59375 -26.03125 C 24.59375 -25.65625 24.519531 -25.207031 24.375 -24.6875 C 24.195312 -24.039062 23.976562 -23.578125 23.71875 -23.296875 C 23.46875 -23.023438 23.171875 -22.890625 22.828125 -22.890625 C 22.648438 -22.890625 22.4375 -22.925781 22.1875 -23 C 20.332031 -23.5625 18.710938 -23.84375 17.328125 -23.84375 C 15.441406 -23.84375 14.5 -22.632812 14.5 -20.21875 L 14.5 -18.90625 L 21.3125 -18.90625 C 21.820312 -18.90625 22.175781 -18.738281 22.375 -18.40625 C 22.582031 -18.070312 22.6875 -17.453125 22.6875 -16.546875 C 22.6875 -15.640625 22.582031 -15.019531 22.375 -14.6875 C 22.175781 -14.363281 21.820312 -14.203125 21.3125 -14.203125 L 14.5 -14.203125 L 14.5 -4.484375 L 20.65625 -4.484375 C 21.007812 -4.484375 21.28125 -4.421875 21.46875 -4.296875 C 21.65625 -4.171875 21.796875 -3.945312 21.890625 -3.625 C 21.984375 -3.3125 22.03125 -2.847656 22.03125 -2.234375 C 22.03125 -1.617188 21.984375 -1.148438 21.890625 -0.828125 C 21.796875 -0.503906 21.65625 -0.285156 21.46875 -0.171875 C 21.28125 -0.0546875 21.007812 0 20.65625 0 L 5.03125 0 C 4.675781 0 4.40625 -0.0546875 4.21875 -0.171875 C 4.03125 -0.285156 3.890625 -0.503906 3.796875 -0.828125 C 3.703125 -1.148438 3.65625 -1.617188 3.65625 -2.234375 C 3.65625 -2.847656 3.703125 -3.3125 3.796875 -3.625 C 3.890625 -3.945312 4.03125 -4.171875 4.21875 -4.296875 C 4.40625 -4.421875 4.675781 -4.484375 5.03125 -4.484375 L 9.03125 -4.484375 L 9.03125 -14.203125 L 5.03125 -14.203125 C 4.519531 -14.203125 4.160156 -14.363281 3.953125 -14.6875 C 3.753906 -15.019531 3.65625 -15.640625 3.65625 -16.546875 C 3.65625 -17.453125 3.753906 -18.070312 3.953125 -18.40625 C 4.160156 -18.738281 4.519531 -18.90625 5.03125 -18.90625 L 9.03125 -18.90625 L 9.03125 -20.5 C 9.03125 -23.21875 9.695312 -25.28125 11.03125 -26.6875 C 12.375 -28.101562 14.3125 -28.8125 16.84375 -28.8125 Z M 16.84375 -28.8125 "/></g></g></g><g fill="#ffffff" fill-opacity="1"><g transform="translate(148.899393, 87.89946)"><g><path d="M 13.4375 -20.703125 C 15.65625 -20.703125 17.59375 -20.25 19.25 -19.34375 C 20.914062 -18.4375 22.195312 -17.179688 23.09375 -15.578125 C 23.988281 -13.972656 24.4375 -12.148438 24.4375 -10.109375 C 24.4375 -8.066406 23.988281 -6.242188 23.09375 -4.640625 C 22.195312 -3.035156 20.914062 -1.78125 19.25 -0.875 C 17.59375 0.03125 15.65625 0.484375 13.4375 0.484375 C 11.21875 0.484375 9.273438 0.03125 7.609375 -0.875 C 5.953125 -1.78125 4.671875 -3.035156 3.765625 -4.640625 C 2.867188 -6.242188 2.421875 -8.066406 2.421875 -10.109375 C 2.421875 -12.148438 2.867188 -13.972656 3.765625 -15.578125 C 4.671875 -17.179688 5.953125 -18.4375 7.609375 -19.34375 C 9.273438 -20.25 11.21875 -20.703125 13.4375 -20.703125 Z M 13.4375 -15.734375 C 12.382812 -15.734375 11.472656 -15.503906 10.703125 -15.046875 C 9.929688 -14.585938 9.335938 -13.929688 8.921875 -13.078125 C 8.503906 -12.234375 8.296875 -11.242188 8.296875 -10.109375 C 8.296875 -8.972656 8.503906 -7.976562 8.921875 -7.125 C 9.335938 -6.28125 9.929688 -5.628906 10.703125 -5.171875 C 11.472656 -4.710938 12.382812 -4.484375 13.4375 -4.484375 C 14.488281 -4.484375 15.398438 -4.710938 16.171875 -5.171875 C 16.941406 -5.628906 17.535156 -6.28125 17.953125 -7.125 C 18.367188 -7.976562 18.578125 -8.972656 18.578125 -10.109375 C 18.578125 -11.242188 18.367188 -12.234375 17.953125 -13.078125 C 17.535156 -13.929688 16.941406 -14.585938 16.171875 -15.046875 C 15.398438 -15.503906 14.488281 -15.734375 13.4375 -15.734375 Z M 13.4375 -15.734375 "/></g></g></g><g fill="#ffffff" fill-opacity="1"><g transform="translate(175.052181, 87.89946)"><g><path d="M 20.28125 -20.703125 C 21.519531 -20.703125 22.6875 -20.289062 23.78125 -19.46875 C 24.425781 -19.007812 24.75 -18.398438 24.75 -17.640625 C 24.75 -17.160156 24.617188 -16.585938 24.359375 -15.921875 C 24.085938 -15.265625 23.785156 -14.769531 23.453125 -14.4375 C 23.128906 -14.101562 22.785156 -13.9375 22.421875 -13.9375 C 22.222656 -13.9375 22.003906 -13.992188 21.765625 -14.109375 C 20.953125 -14.566406 20.109375 -14.796875 19.234375 -14.796875 C 18.109375 -14.796875 17.054688 -14.4375 16.078125 -13.71875 C 15.097656 -13 14.3125 -12.015625 13.71875 -10.765625 C 13.132812 -9.515625 12.84375 -8.113281 12.84375 -6.5625 L 12.84375 -4.484375 L 19.125 -4.484375 C 19.476562 -4.484375 19.75 -4.421875 19.9375 -4.296875 C 20.125 -4.171875 20.265625 -3.945312 20.359375 -3.625 C 20.453125 -3.3125 20.5 -2.847656 20.5 -2.234375 C 20.5 -1.617188 20.453125 -1.148438 20.359375 -0.828125 C 20.265625 -0.503906 20.125 -0.285156 19.9375 -0.171875 C 19.75 -0.0546875 19.476562 0 19.125 0 L 4.15625 0 C 3.800781 0 3.53125 -0.0546875 3.34375 -0.171875 C 3.15625 -0.285156 3.015625 -0.503906 2.921875 -0.828125 C 2.828125 -1.148438 2.78125 -1.617188 2.78125 -2.234375 C 2.78125 -2.847656 2.828125 -3.3125 2.921875 -3.625 C 3.015625 -3.945312 3.15625 -4.171875 3.34375 -4.296875 C 3.53125 -4.421875 3.800781 -4.484375 4.15625 -4.484375 L 7.375 -4.484375 L 7.375 -15.734375 L 4.8125 -15.734375 C 4.457031 -15.734375 4.1875 -15.789062 4 -15.90625 C 3.8125 -16.019531 3.671875 -16.238281 3.578125 -16.5625 C 3.484375 -16.882812 3.4375 -17.351562 3.4375 -17.96875 C 3.4375 -18.582031 3.484375 -19.046875 3.578125 -19.359375 C 3.671875 -19.679688 3.8125 -19.90625 4 -20.03125 C 4.1875 -20.15625 4.457031 -20.21875 4.8125 -20.21875 L 10.8125 -20.21875 C 11.300781 -20.21875 11.648438 -20.109375 11.859375 -19.890625 C 12.078125 -19.679688 12.1875 -19.332031 12.1875 -18.84375 L 12.1875 -14.09375 C 13.28125 -16.207031 14.535156 -17.835938 15.953125 -18.984375 C 17.378906 -20.128906 18.820312 -20.703125 20.28125 -20.703125 Z M 20.28125 -20.703125 "/></g></g></g><g fill="#ffffff" fill-opacity="1"><g transform="translate(201.204969, 87.89946)"><g><path d="M 21.140625 -20.703125 C 22.484375 -20.703125 23.539062 -20.15625 24.3125 -19.0625 C 25.082031 -17.96875 25.46875 -16.300781 25.46875 -14.0625 L 25.46875 -1.375 C 25.46875 -0.882812 25.359375 -0.53125 25.140625 -0.3125 C 24.929688 -0.101562 24.582031 0 24.09375 0 L 21.375 0 C 20.882812 0 20.53125 -0.101562 20.3125 -0.3125 C 20.101562 -0.53125 20 -0.882812 20 -1.375 L 20 -12.828125 C 20 -13.597656 19.90625 -14.164062 19.71875 -14.53125 C 19.539062 -14.894531 19.253906 -15.078125 18.859375 -15.078125 C 18.171875 -15.078125 17.625 -14.539062 17.21875 -13.46875 C 16.820312 -12.40625 16.625 -10.851562 16.625 -8.8125 L 16.625 -1.375 C 16.625 -0.882812 16.519531 -0.53125 16.3125 -0.3125 C 16.101562 -0.101562 15.75 0 15.25 0 L 12.53125 0 C 12.039062 0 11.6875 -0.101562 11.46875 -0.3125 C 11.257812 -0.53125 11.15625 -0.882812 11.15625 -1.375 L 11.15625 -12.828125 C 11.15625 -13.597656 11.0625 -14.164062 10.875 -14.53125 C 10.695312 -14.894531 10.410156 -15.078125 10.015625 -15.078125 C 9.335938 -15.078125 8.796875 -14.539062 8.390625 -13.46875 C 7.992188 -12.40625 7.796875 -10.851562 7.796875 -8.8125 L 7.796875 -1.375 C 7.796875 -0.882812 7.6875 -0.53125 7.46875 -0.3125 C 7.257812 -0.101562 6.90625 0 6.40625 0 L 3.703125 0 C 3.203125 0 2.84375 -0.101562 2.625 -0.3125 C 2.414062 -0.53125 2.3125 -0.882812 2.3125 -1.375 L 2.3125 -15.734375 L 1.078125 -15.734375 C 0.722656 -15.734375 0.453125 -15.789062 0.265625 -15.90625 C 0.078125 -16.019531 -0.0625 -16.238281 -0.15625 -16.5625 C -0.257812 -16.882812 -0.3125 -17.351562 -0.3125 -17.96875 C -0.3125 -18.582031 -0.257812 -19.046875 -0.15625 -19.359375 C -0.0625 -19.679688 0.078125 -19.90625 0.265625 -20.03125 C 0.453125 -20.15625 0.722656 -20.21875 1.078125 -20.21875 L 4.875 -20.21875 C 5.375 -20.21875 5.726562 -20.109375 5.9375 -19.890625 C 6.15625 -19.679688 6.265625 -19.332031 6.265625 -18.84375 L 6.265625 -15.6875 C 6.941406 -17.332031 7.742188 -18.578125 8.671875 -19.421875 C 9.597656 -20.273438 10.617188 -20.703125 11.734375 -20.703125 C 13.890625 -20.703125 15.28125 -19.21875 15.90625 -16.25 C 16.582031 -17.71875 17.363281 -18.828125 18.25 -19.578125 C 19.132812 -20.328125 20.097656 -20.703125 21.140625 -20.703125 Z M 21.140625 -20.703125 "/></g></g></g><g fill="#ffffff" fill-opacity="1"><g transform="translate(227.357757, 87.89946)"><g><path d="M 13.1875 -20.703125 C 16.40625 -20.703125 18.726562 -20.007812 20.15625 -18.625 C 21.582031 -17.238281 22.296875 -15.253906 22.296875 -12.671875 L 22.296875 -6.34375 C 22.296875 -5.757812 22.421875 -5.300781 22.671875 -4.96875 C 22.921875 -4.644531 23.273438 -4.484375 23.734375 -4.484375 L 24.421875 -4.484375 C 24.765625 -4.484375 25.03125 -4.421875 25.21875 -4.296875 C 25.414062 -4.171875 25.5625 -3.945312 25.65625 -3.625 C 25.75 -3.3125 25.796875 -2.847656 25.796875 -2.234375 C 25.796875 -1.617188 25.75 -1.148438 25.65625 -0.828125 C 25.5625 -0.503906 25.414062 -0.285156 25.21875 -0.171875 C 25.03125 -0.0546875 24.765625 0 24.421875 0 L 21.96875 0 C 21.0625 0 20.257812 -0.179688 19.5625 -0.546875 C 18.875 -0.921875 18.347656 -1.507812 17.984375 -2.3125 C 16.828125 -1.425781 15.609375 -0.738281 14.328125 -0.25 C 13.046875 0.238281 11.726562 0.484375 10.375 0.484375 C 8.726562 0.484375 7.304688 0.203125 6.109375 -0.359375 C 4.910156 -0.921875 3.992188 -1.722656 3.359375 -2.765625 C 2.722656 -3.804688 2.40625 -5.035156 2.40625 -6.453125 C 2.40625 -8.492188 3.125 -10.078125 4.5625 -11.203125 C 6.007812 -12.328125 8.035156 -12.890625 10.640625 -12.890625 C 12.578125 -12.890625 14.640625 -12.671875 16.828125 -12.234375 L 16.828125 -12.859375 C 16.828125 -13.835938 16.519531 -14.5625 15.90625 -15.03125 C 15.289062 -15.5 14.210938 -15.734375 12.671875 -15.734375 C 11.804688 -15.734375 10.84375 -15.625 9.78125 -15.40625 C 8.726562 -15.195312 7.6875 -14.921875 6.65625 -14.578125 C 6.40625 -14.503906 6.191406 -14.46875 6.015625 -14.46875 C 5.648438 -14.46875 5.320312 -14.597656 5.03125 -14.859375 C 4.75 -15.128906 4.492188 -15.585938 4.265625 -16.234375 C 4.046875 -16.878906 3.9375 -17.40625 3.9375 -17.8125 C 3.9375 -18.550781 4.269531 -19.046875 4.9375 -19.296875 C 6.238281 -19.765625 7.617188 -20.113281 9.078125 -20.34375 C 10.535156 -20.582031 11.90625 -20.703125 13.1875 -20.703125 Z M 11.1875 -8.375 C 10.164062 -8.375 9.382812 -8.191406 8.84375 -7.828125 C 8.3125 -7.460938 8.046875 -6.929688 8.046875 -6.234375 C 8.046875 -5.546875 8.304688 -5.023438 8.828125 -4.671875 C 9.347656 -4.316406 10.097656 -4.140625 11.078125 -4.140625 C 12.078125 -4.140625 13.066406 -4.335938 14.046875 -4.734375 C 15.035156 -5.140625 15.960938 -5.691406 16.828125 -6.390625 L 16.828125 -7.796875 C 14.898438 -8.179688 13.019531 -8.375 11.1875 -8.375 Z M 11.1875 -8.375 "/></g></g></g><g fill="#ffffff" fill-opacity="1"><g transform="translate(253.510546, 87.89946)"><g><path d="M 10.609375 -26.453125 C 11.296875 -26.453125 11.820312 -26.40625 12.1875 -26.3125 C 12.5625 -26.21875 12.820312 -26.070312 12.96875 -25.875 C 13.113281 -25.6875 13.1875 -25.421875 13.1875 -25.078125 L 13.1875 -18.90625 L 21.3125 -18.90625 C 21.820312 -18.90625 22.175781 -18.738281 22.375 -18.40625 C 22.582031 -18.070312 22.6875 -17.453125 22.6875 -16.546875 C 22.6875 -15.640625 22.582031 -15.019531 22.375 -14.6875 C 22.175781 -14.363281 21.820312 -14.203125 21.3125 -14.203125 L 13.1875 -14.203125 L 13.1875 -8.125 C 13.1875 -5.695312 14.128906 -4.484375 16.015625 -4.484375 C 16.691406 -4.484375 17.476562 -4.628906 18.375 -4.921875 C 19.269531 -5.222656 20.316406 -5.644531 21.515625 -6.1875 C 21.828125 -6.320312 22.082031 -6.390625 22.28125 -6.390625 C 22.582031 -6.390625 22.863281 -6.257812 23.125 -6 C 23.382812 -5.75 23.632812 -5.332031 23.875 -4.75 C 24.132812 -4.09375 24.265625 -3.5625 24.265625 -3.15625 C 24.265625 -2.832031 24.1875 -2.5625 24.03125 -2.34375 C 23.882812 -2.132812 23.65625 -1.953125 23.34375 -1.796875 C 20.34375 -0.273438 17.738281 0.484375 15.53125 0.484375 C 13 0.484375 11.0625 -0.222656 9.71875 -1.640625 C 8.382812 -3.054688 7.71875 -5.117188 7.71875 -7.828125 L 7.71875 -14.203125 L 3.5 -14.203125 C 2.988281 -14.203125 2.628906 -14.363281 2.421875 -14.6875 C 2.222656 -15.019531 2.125 -15.640625 2.125 -16.546875 C 2.125 -17.453125 2.222656 -18.070312 2.421875 -18.40625 C 2.628906 -18.738281 2.988281 -18.90625 3.5 -18.90625 L 7.71875 -18.90625 L 7.71875 -25.078125 C 7.71875 -25.566406 7.941406 -25.914062 8.390625 -26.125 C 8.835938 -26.34375 9.578125 -26.453125 10.609375 -26.453125 Z M 10.609375 -26.453125 "/></g></g></g><g fill="#ffffff" fill-opacity="1"><g transform="translate(279.663334, 87.89946)"><g><path d="M 15.09375 -20.21875 C 15.59375 -20.21875 15.945312 -20.109375 16.15625 -19.890625 C 16.363281 -19.679688 16.46875 -19.332031 16.46875 -18.84375 L 16.46875 -4.484375 L 22.625 -4.484375 C 22.976562 -4.484375 23.25 -4.421875 23.4375 -4.296875 C 23.625 -4.171875 23.765625 -3.945312 23.859375 -3.625 C 23.953125 -3.3125 24 -2.847656 24 -2.234375 C 24 -1.617188 23.953125 -1.148438 23.859375 -0.828125 C 23.765625 -0.503906 23.625 -0.285156 23.4375 -0.171875 C 23.25 -0.0546875 22.976562 0 22.625 0 L 5.03125 0 C 4.675781 0 4.40625 -0.0546875 4.21875 -0.171875 C 4.03125 -0.285156 3.890625 -0.503906 3.796875 -0.828125 C 3.703125 -1.148438 3.65625 -1.617188 3.65625 -2.234375 C 3.65625 -2.847656 3.703125 -3.3125 3.796875 -3.625 C 3.890625 -3.945312 4.03125 -4.171875 4.21875 -4.296875 C 4.40625 -4.421875 4.675781 -4.484375 5.03125 -4.484375 L 11 -4.484375 L 11 -15.734375 L 6.34375 -15.734375 C 6 -15.734375 5.726562 -15.789062 5.53125 -15.90625 C 5.34375 -16.019531 5.203125 -16.238281 5.109375 -16.5625 C 5.015625 -16.882812 4.96875 -17.351562 4.96875 -17.96875 C 4.96875 -18.582031 5.015625 -19.046875 5.109375 -19.359375 C 5.203125 -19.679688 5.34375 -19.90625 5.53125 -20.03125 C 5.726562 -20.15625 6 -20.21875 6.34375 -20.21875 Z M 13.6875 -29.828125 C 14.71875 -29.828125 15.441406 -29.71875 15.859375 -29.5 C 16.273438 -29.289062 16.484375 -28.941406 16.484375 -28.453125 L 16.484375 -24.859375 C 16.484375 -24.359375 16.289062 -24.003906 15.90625 -23.796875 C 15.519531 -23.585938 14.816406 -23.484375 13.796875 -23.484375 C 12.773438 -23.484375 12.054688 -23.585938 11.640625 -23.796875 C 11.222656 -24.003906 11.015625 -24.359375 11.015625 -24.859375 L 11.015625 -28.453125 C 11.015625 -28.960938 11.203125 -29.316406 11.578125 -29.515625 C 11.960938 -29.722656 12.664062 -29.828125 13.6875 -29.828125 Z M 13.6875 -29.828125 "/></g></g></g><g fill="#ffffff" fill-opacity="1"><g transform="translate(305.816122, 87.89946)"><g><path d="M 24.609375 -20.21875 C 24.960938 -20.21875 25.234375 -20.15625 25.421875 -20.03125 C 25.609375 -19.90625 25.75 -19.679688 25.84375 -19.359375 C 25.945312 -19.046875 26 -18.582031 26 -17.96875 C 26 -17.351562 25.945312 -16.882812 25.84375 -16.5625 C 25.75 -16.238281 25.609375 -16.019531 25.421875 -15.90625 C 25.234375 -15.789062 24.960938 -15.734375 24.609375 -15.734375 L 23.125 -15.734375 L 16.71875 -0.9375 C 16.5 -0.425781 16.140625 -0.0625 15.640625 0.15625 C 15.148438 0.375 14.394531 0.484375 13.375 0.484375 C 12.351562 0.484375 11.597656 0.375 11.109375 0.15625 C 10.628906 -0.0625 10.28125 -0.425781 10.0625 -0.9375 L 3.703125 -15.734375 L 2.25 -15.734375 C 1.90625 -15.734375 1.632812 -15.789062 1.4375 -15.90625 C 1.25 -16.019531 1.109375 -16.238281 1.015625 -16.5625 C 0.921875 -16.882812 0.875 -17.351562 0.875 -17.96875 C 0.875 -18.582031 0.921875 -19.046875 1.015625 -19.359375 C 1.109375 -19.679688 1.25 -19.90625 1.4375 -20.03125 C 1.632812 -20.15625 1.90625 -20.21875 2.25 -20.21875 L 11.09375 -20.21875 C 11.445312 -20.21875 11.71875 -20.15625 11.90625 -20.03125 C 12.09375 -19.90625 12.234375 -19.679688 12.328125 -19.359375 C 12.421875 -19.046875 12.46875 -18.582031 12.46875 -17.96875 C 12.46875 -17.351562 12.421875 -16.882812 12.328125 -16.5625 C 12.234375 -16.238281 12.09375 -16.019531 11.90625 -15.90625 C 11.71875 -15.789062 11.445312 -15.734375 11.09375 -15.734375 L 9.625 -15.734375 L 13.5 -6.078125 L 17.421875 -15.734375 L 16.21875 -15.734375 C 15.863281 -15.734375 15.59375 -15.789062 15.40625 -15.90625 C 15.21875 -16.019531 15.070312 -16.238281 14.96875 -16.5625 C 14.875 -16.882812 14.828125 -17.351562 14.828125 -17.96875 C 14.828125 -18.582031 14.875 -19.046875 14.96875 -19.359375 C 15.070312 -19.679688 15.21875 -19.90625 15.40625 -20.03125 C 15.59375 -20.15625 15.863281 -20.21875 16.21875 -20.21875 Z M 24.609375 -20.21875 "/></g></g></g><g fill="#ffffff" fill-opacity="1"><g transform="translate(331.96891, 87.89946)"><g><path d="M 13.1875 -20.703125 C 16.40625 -20.703125 18.726562 -20.007812 20.15625 -18.625 C 21.582031 -17.238281 22.296875 -15.253906 22.296875 -12.671875 L 22.296875 -6.34375 C 22.296875 -5.757812 22.421875 -5.300781 22.671875 -4.96875 C 22.921875 -4.644531 23.273438 -4.484375 23.734375 -4.484375 L 24.421875 -4.484375 C 24.765625 -4.484375 25.03125 -4.421875 25.21875 -4.296875 C 25.414062 -4.171875 25.5625 -3.945312 25.65625 -3.625 C 25.75 -3.3125 25.796875 -2.847656 25.796875 -2.234375 C 25.796875 -1.617188 25.75 -1.148438 25.65625 -0.828125 C 25.5625 -0.503906 25.414062 -0.285156 25.21875 -0.171875 C 25.03125 -0.0546875 24.765625 0 24.421875 0 L 21.96875 0 C 21.0625 0 20.257812 -0.179688 19.5625 -0.546875 C 18.875 -0.921875 18.347656 -1.507812 17.984375 -2.3125 C 16.828125 -1.425781 15.609375 -0.738281 14.328125 -0.25 C 13.046875 0.238281 11.726562 0.484375 10.375 0.484375 C 8.726562 0.484375 7.304688 0.203125 6.109375 -0.359375 C 4.910156 -0.921875 3.992188 -1.722656 3.359375 -2.765625 C 2.722656 -3.804688 2.40625 -5.035156 2.40625 -6.453125 C 2.40625 -8.492188 3.125 -10.078125 4.5625 -11.203125 C 6.007812 -12.328125 8.035156 -12.890625 10.640625 -12.890625 C 12.578125 -12.890625 14.640625 -12.671875 16.828125 -12.234375 L 16.828125 -12.859375 C 16.828125 -13.835938 16.519531 -14.5625 15.90625 -15.03125 C 15.289062 -15.5 14.210938 -15.734375 12.671875 -15.734375 C 11.804688 -15.734375 10.84375 -15.625 9.78125 -15.40625 C 8.726562 -15.195312 7.6875 -14.921875 6.65625 -14.578125 C 6.40625 -14.503906 6.191406 -14.46875 6.015625 -14.46875 C 5.648438 -14.46875 5.320312 -14.597656 5.03125 -14.859375 C 4.75 -15.128906 4.492188 -15.585938 4.265625 -16.234375 C 4.046875 -16.878906 3.9375 -17.40625 3.9375 -17.8125 C 3.9375 -18.550781 4.269531 -19.046875 4.9375 -19.296875 C 6.238281 -19.765625 7.617188 -20.113281 9.078125 -20.34375 C 10.535156 -20.582031 11.90625 -20.703125 13.1875 -20.703125 Z M 11.1875 -8.375 C 10.164062 -8.375 9.382812 -8.191406 8.84375 -7.828125 C 8.3125 -7.460938 8.046875 -6.929688 8.046875 -6.234375 C 8.046875 -5.546875 8.304688 -5.023438 8.828125 -4.671875 C 9.347656 -4.316406 10.097656 -4.140625 11.078125 -4.140625 C 12.078125 -4.140625 13.066406 -4.335938 14.046875 -4.734375 C 15.035156 -5.140625 15.960938 -5.691406 16.828125 -6.390625 L 16.828125 -7.796875 C 14.898438 -8.179688 13.019531 -8.375 11.1875 -8.375 Z M 11.1875 -8.375 "/></g></g></g><g clip-path="url(#ba6992b30b)"><path fill="#1f2937" d="M 95.917969 65.449219 L 95.917969 57.757812 C 95.917969 49.257812 89.023438 42.359375 80.523438 42.359375 L 80.523438 50.058594 C 84.769531 50.058594 88.222656 53.507812 88.222656 57.757812 L 88.222656 65.449219 C 88.222656 70.074219 90.304688 74.175781 93.53125 77 C 90.304688 79.820312 88.222656 83.917969 88.222656 88.546875 L 88.222656 96.242188 C 88.222656 100.492188 84.769531 103.941406 80.519531 103.941406 L 80.519531 111.636719 C 89.015625 111.636719 95.917969 104.75 95.917969 96.242188 L 95.917969 88.546875 C 95.917969 84.292969 99.367188 80.847656 103.617188 80.847656 L 103.617188 73.144531 C 99.359375 73.144531 95.917969 69.699219 95.917969 65.449219 Z M 95.917969 65.449219 " fill-opacity="1" fill-rule="nonzero"/></g><g clip-path="url(#97dae81f91)"><path fill="#1f2937" d="M 49.738281 65.453125 L 49.738281 57.753906 C 49.738281 53.5 53.1875 50.054688 57.4375 50.054688 L 57.4375 42.359375 C 48.9375 42.359375 42.039062 49.25 42.039062 57.753906 L 42.035156 65.453125 C 42.035156 69.703125 38.585938 73.148438 34.335938 73.148438 L 34.335938 80.847656 L 34.339844 80.851562 C 38.59375 80.851562 42.039062 84.296875 42.039062 88.546875 L 42.039062 96.238281 C 42.039062 104.738281 48.925781 111.636719 57.433594 111.636719 L 57.433594 103.9375 C 53.179688 103.9375 49.738281 100.492188 49.738281 96.238281 L 49.738281 88.546875 C 49.738281 83.921875 47.652344 79.820312 44.421875 77 C 47.652344 74.175781 49.738281 70.078125 49.738281 65.453125 Z M 49.738281 65.453125 " fill-opacity="1" fill-rule="nonzero"/></g><g fill="#1f2937" fill-opacity="1"><g transform="translate(52.552753, 93.82709)"><g><path d="M 20.59375 -35.234375 C 23.300781 -35.234375 26.015625 -34.722656 28.734375 -33.703125 C 29.171875 -33.546875 29.5 -33.316406 29.71875 -33.015625 C 29.945312 -32.722656 30.0625 -32.328125 30.0625 -31.828125 C 30.0625 -31.367188 29.972656 -30.816406 29.796875 -30.171875 C 29.585938 -29.390625 29.328125 -28.828125 29.015625 -28.484375 C 28.703125 -28.148438 28.332031 -27.984375 27.90625 -27.984375 C 27.6875 -27.984375 27.425781 -28.023438 27.125 -28.109375 C 24.851562 -28.804688 22.875 -29.15625 21.1875 -29.15625 C 18.882812 -29.15625 17.734375 -27.675781 17.734375 -24.71875 L 17.734375 -23.109375 L 26.046875 -23.109375 C 26.671875 -23.109375 27.109375 -22.898438 27.359375 -22.484375 C 27.609375 -22.078125 27.734375 -21.320312 27.734375 -20.21875 C 27.734375 -19.113281 27.609375 -18.359375 27.359375 -17.953125 C 27.109375 -17.554688 26.671875 -17.359375 26.046875 -17.359375 L 17.734375 -17.359375 L 17.734375 -5.484375 L 25.25 -5.484375 C 25.675781 -5.484375 26.003906 -5.40625 26.234375 -5.25 C 26.472656 -5.101562 26.648438 -4.832031 26.765625 -4.4375 C 26.878906 -4.050781 26.9375 -3.484375 26.9375 -2.734375 C 26.9375 -1.984375 26.878906 -1.410156 26.765625 -1.015625 C 26.648438 -0.617188 26.472656 -0.347656 26.234375 -0.203125 C 26.003906 -0.0664062 25.675781 0 25.25 0 L 6.15625 0 C 5.726562 0 5.394531 -0.0664062 5.15625 -0.203125 C 4.925781 -0.347656 4.753906 -0.617188 4.640625 -1.015625 C 4.523438 -1.410156 4.46875 -1.984375 4.46875 -2.734375 C 4.46875 -3.484375 4.523438 -4.050781 4.640625 -4.4375 C 4.753906 -4.832031 4.925781 -5.101562 5.15625 -5.25 C 5.394531 -5.40625 5.726562 -5.484375 6.15625 -5.484375 L 11.046875 -5.484375 L 11.046875 -17.359375 L 6.15625 -17.359375 C 5.53125 -17.359375 5.09375 -17.554688 4.84375 -17.953125 C 4.59375 -18.359375 4.46875 -19.113281 4.46875 -20.21875 C 4.46875 -21.320312 4.59375 -22.078125 4.84375 -22.484375 C 5.09375 -22.898438 5.53125 -23.109375 6.15625 -23.109375 L 11.046875 -23.109375 L 11.046875 -25.0625 C 11.046875 -28.375 11.859375 -30.894531 13.484375 -32.625 C 15.117188 -34.363281 17.488281 -35.234375 20.59375 -35.234375 Z M 20.59375 -35.234375 "/></g></g></g></svg>