<svg xmlns="http://www.w3.org/2000/svg" xmlns:xlink="http://www.w3.org/1999/xlink" width="500" zoomAndPan="magnify" viewBox="0 0 375 374.999991" height="500" preserveAspectRatio="xMidYMid meet" version="1.0"><defs><g/><clipPath id="6843a869ad"><path d="M 229 62.261719 L 312.761719 62.261719 L 312.761719 312.761719 L 229 312.761719 Z M 229 62.261719 " clip-rule="nonzero"/></clipPath><clipPath id="8430cf8642"><path d="M 62.261719 62.261719 L 146 62.261719 L 146 312.761719 L 62.261719 312.761719 Z M 62.261719 62.261719 " clip-rule="nonzero"/></clipPath></defs><g clip-path="url(#6843a869ad)"><path fill="#1f2937" d="M 284.910156 145.734375 L 284.910156 117.933594 C 284.910156 87.207031 259.980469 62.261719 229.246094 62.261719 L 229.246094 90.105469 C 244.605469 90.105469 257.082031 102.566406 257.082031 117.933594 L 257.082031 145.734375 C 257.082031 162.460938 264.609375 177.296875 276.285156 187.5 C 264.609375 197.695312 257.082031 212.511719 257.082031 229.246094 L 257.082031 257.074219 C 257.082031 272.441406 244.605469 284.90625 229.234375 284.90625 L 229.234375 312.738281 C 259.949219 312.738281 284.910156 287.828125 284.910156 257.074219 L 284.910156 229.246094 C 284.910156 213.875 297.375 201.414062 312.738281 201.414062 L 312.738281 173.566406 C 297.347656 173.566406 284.910156 161.105469 284.910156 145.734375 Z M 284.910156 145.734375 " fill-opacity="1" fill-rule="nonzero"/></g><g clip-path="url(#8430cf8642)"><path fill="#1f2937" d="M 117.941406 145.753906 L 117.941406 117.921875 C 117.941406 102.546875 130.414062 90.089844 145.785156 90.089844 L 145.785156 62.261719 C 115.046875 62.261719 90.105469 87.167969 90.105469 117.921875 L 90.097656 145.753906 C 90.097656 161.125 77.625 173.582031 62.261719 173.582031 L 62.261719 201.414062 L 62.273438 201.425781 C 77.648438 201.425781 90.105469 213.882812 90.105469 229.257812 L 90.105469 257.058594 C 90.105469 287.785156 115.015625 312.738281 145.769531 312.738281 L 145.769531 284.890625 C 130.390625 284.890625 117.941406 272.433594 117.941406 257.058594 L 117.941406 229.257812 C 117.941406 212.527344 110.40625 197.695312 98.730469 187.5 C 110.40625 177.296875 117.941406 162.472656 117.941406 145.753906 Z M 117.941406 145.753906 " fill-opacity="1" fill-rule="nonzero"/></g><g fill="#1f2937" fill-opacity="1"><g transform="translate(128.118937, 248.331327)"><g><path d="M 74.46875 -127.359375 C 84.257812 -127.359375 94.054688 -125.519531 103.859375 -121.84375 C 105.472656 -121.257812 106.679688 -120.4375 107.484375 -119.375 C 108.285156 -118.3125 108.6875 -116.878906 108.6875 -115.078125 C 108.6875 -113.398438 108.367188 -111.398438 107.734375 -109.078125 C 106.953125 -106.242188 106 -104.210938 104.875 -102.984375 C 103.75 -101.765625 102.410156 -101.15625 100.859375 -101.15625 C 100.085938 -101.15625 99.15625 -101.316406 98.0625 -101.640625 C 89.875 -104.148438 82.71875 -105.40625 76.59375 -105.40625 C 68.269531 -105.40625 64.109375 -100.054688 64.109375 -89.359375 L 64.109375 -83.546875 L 94.1875 -83.546875 C 96.445312 -83.546875 98.023438 -82.804688 98.921875 -81.328125 C 99.828125 -79.847656 100.28125 -77.109375 100.28125 -73.109375 C 100.28125 -69.109375 99.828125 -66.382812 98.921875 -64.9375 C 98.023438 -63.488281 96.445312 -62.765625 94.1875 -62.765625 L 64.109375 -62.765625 L 64.109375 -19.828125 L 91.28125 -19.828125 C 92.832031 -19.828125 94.023438 -19.550781 94.859375 -19 C 95.703125 -18.457031 96.332031 -17.472656 96.75 -16.046875 C 97.164062 -14.628906 97.375 -12.566406 97.375 -9.859375 C 97.375 -7.148438 97.164062 -5.085938 96.75 -3.671875 C 96.332031 -2.253906 95.703125 -1.285156 94.859375 -0.765625 C 94.023438 -0.253906 92.832031 0 91.28125 0 L 22.234375 0 C 20.691406 0 19.5 -0.253906 18.65625 -0.765625 C 17.820312 -1.285156 17.195312 -2.253906 16.78125 -3.671875 C 16.363281 -5.085938 16.15625 -7.148438 16.15625 -9.859375 C 16.15625 -12.566406 16.363281 -14.628906 16.78125 -16.046875 C 17.195312 -17.472656 17.820312 -18.457031 18.65625 -19 C 19.5 -19.550781 20.691406 -19.828125 22.234375 -19.828125 L 39.9375 -19.828125 L 39.9375 -62.765625 L 22.234375 -62.765625 C 19.984375 -62.765625 18.40625 -63.488281 17.5 -64.9375 C 16.601562 -66.382812 16.15625 -69.109375 16.15625 -73.109375 C 16.15625 -77.109375 16.601562 -79.847656 17.5 -81.328125 C 18.40625 -82.804688 19.984375 -83.546875 22.234375 -83.546875 L 39.9375 -83.546875 L 39.9375 -90.609375 C 39.9375 -102.597656 42.882812 -111.71875 48.78125 -117.96875 C 54.6875 -124.226562 63.25 -127.359375 74.46875 -127.359375 Z M 74.46875 -127.359375 "/></g></g></g></svg>