<svg xmlns="http://www.w3.org/2000/svg" xmlns:xlink="http://www.w3.org/1999/xlink" width="750" zoomAndPan="magnify" viewBox="0 0 562.5 374.999991" height="500" preserveAspectRatio="xMidYMid meet" version="1.0"><defs><g/><clipPath id="88316cbf82"><path d="M 77 15.230469 L 183 15.230469 L 183 359.925781 L 77 359.925781 Z M 77 15.230469 " clip-rule="nonzero"/></clipPath><clipPath id="de07275aa8"><path d="M 379 15.230469 L 484.519531 15.230469 L 484.519531 359.925781 L 379 359.925781 Z M 379 15.230469 " clip-rule="nonzero"/></clipPath></defs><g clip-path="url(#88316cbf82)"><path fill="#ffffff" d="M 172.703125 53.511719 L 182.273438 53.511719 L 182.273438 15.230469 L 172.703125 15.230469 C 140.992188 15.230469 115.28125 40.941406 115.28125 72.652344 L 115.28125 139.644531 C 115.28125 145.671875 112.445312 151.34375 107.625 154.957031 L 84.65625 172.183594 C 80.0625 175.632812 77.257812 180.960938 77.019531 186.703125 C 76.777344 192.441406 79.132812 197.988281 83.425781 201.804688 L 108.855469 224.402344 C 112.945312 228.035156 115.28125 233.242188 115.28125 238.710938 L 115.28125 302.339844 C 115.28125 334.054688 140.992188 359.761719 172.703125 359.761719 L 182.273438 359.761719 L 182.273438 321.480469 L 172.703125 321.480469 C 162.132812 321.480469 153.5625 312.910156 153.5625 302.339844 L 153.5625 238.710938 C 153.5625 222.304688 146.546875 206.683594 134.285156 195.789062 L 126.367188 188.753906 L 130.59375 185.582031 C 145.054688 174.738281 153.5625 157.71875 153.5625 139.644531 L 153.5625 72.652344 C 153.5625 62.082031 162.132812 53.511719 172.703125 53.511719 Z M 172.703125 53.511719 " fill-opacity="1" fill-rule="evenodd"/></g><g clip-path="url(#de07275aa8)"><path fill="#ffffff" d="M 389.003906 53.511719 L 379.433594 53.511719 L 379.433594 15.230469 L 389.003906 15.230469 C 420.71875 15.230469 446.425781 40.941406 446.425781 72.652344 L 446.425781 139.644531 C 446.425781 145.671875 449.261719 151.34375 454.082031 154.957031 L 477.050781 172.183594 C 481.648438 175.632812 484.453125 180.960938 484.691406 186.703125 C 484.929688 192.441406 482.578125 197.988281 478.28125 201.804688 L 452.851562 224.402344 C 448.765625 228.035156 446.425781 233.242188 446.425781 238.710938 L 446.425781 302.339844 C 446.425781 334.054688 420.71875 359.761719 389.003906 359.761719 L 379.433594 359.761719 L 379.433594 321.480469 L 389.003906 321.480469 C 399.578125 321.480469 408.144531 312.910156 408.144531 302.339844 L 408.144531 238.710938 C 408.144531 222.304688 415.160156 206.683594 427.425781 195.789062 L 435.339844 188.753906 L 431.113281 185.582031 C 416.65625 174.738281 408.144531 157.71875 408.144531 139.644531 L 408.144531 72.652344 C 408.144531 62.082031 399.578125 53.511719 389.003906 53.511719 Z M 389.003906 53.511719 " fill-opacity="1" fill-rule="evenodd"/></g><g fill="#f5fff9" fill-opacity="1"><g transform="translate(208.758349, 325.329466)"><g><path d="M 115.765625 -205.0625 C 110.128906 -205.0625 105.351562 -203.101562 101.4375 -199.1875 C 97.507812 -195.019531 95.546875 -190.117188 95.546875 -184.484375 L 95.546875 -164.265625 L 133.40625 -164.265625 L 133.40625 -112.828125 L 95.546875 -112.828125 L 95.546875 0 L 44.09375 0 L 44.09375 -113.1875 L 11.03125 -113.1875 L 11.03125 -164.265625 L 44.09375 -164.265625 L 44.09375 -205.0625 C 44.09375 -219.269531 49.117188 -231.273438 59.171875 -241.078125 C 69.210938 -251.117188 81.335938 -256.140625 95.546875 -256.140625 L 133.40625 -256.140625 L 133.40625 -205.0625 Z M 115.765625 -205.0625 "/></g></g></g></svg>